<?xml version="1.0" encoding="UTF-8"?>
<svg version="1.1" xmlns="http://www.w3.org/2000/svg" width="1024" height="1024">
<path d="M0 0 C337.92 0 675.84 0 1024 0 C1024 337.92 1024 675.84 1024 1024 C686.08 1024 348.16 1024 0 1024 C0 686.08 0 348.16 0 0 Z " fill="#FAF9F9" transform="translate(0,0)"/>
<path d="M0 0 C1.09696873 -0.00842105 2.19393746 -0.0168421 3.32414767 -0.02551833 C7.01416143 -0.04647703 10.70267655 -0.02454205 14.39266872 -0.0029192 C17.05909853 -0.00911426 19.72542497 -0.01768144 22.39182752 -0.02914459 C28.19626616 -0.04927893 34.00036428 -0.0470856 39.80480862 -0.03027058 C48.43603998 -0.00533483 57.06699684 -0.01468446 65.69823684 -0.0308541 C81.11255737 -0.05859146 96.52672157 -0.05211662 111.9410446 -0.03133909 C125.42960758 -0.01326641 138.9181153 -0.00674407 152.40668964 -0.01170254 C153.74803178 -0.01217232 153.74803178 -0.01217232 155.11647175 -0.01265159 C158.74629308 -0.01393782 162.3761144 -0.01527702 166.00593568 -0.01669645 C200.06531537 -0.02984237 234.12459815 -0.00879017 268.18395631 0.0281208 C298.45517848 0.06073056 328.72627936 0.06526502 358.99751186 0.04546642 C366.7492338 0.04042371 374.50095576 0.03541919 382.25267792 0.03072357 C383.20695518 0.03014539 384.16123244 0.02956721 385.1444272 0.02897151 C410.4267802 0.01411336 435.70912492 0.02238804 460.991476 0.03778905 C463.71124493 0.03941841 466.43101386 0.04103665 469.15078281 0.04263906 C470.9550625 0.04370258 472.75934217 0.04478228 474.56362184 0.04587827 C488.0456324 0.05381769 501.52760559 0.04981489 515.00961399 0.04021168 C530.33575038 0.0293972 545.66176171 0.03663124 560.98787291 0.06766746 C569.56948692 0.08455358 578.15084552 0.08767277 586.73246158 0.07108658 C592.46016266 0.06140427 598.18765017 0.0698218 603.91531151 0.09314947 C607.18182353 0.10594848 610.44771779 0.10806605 613.71423913 0.09376494 C617.22968491 0.07962738 620.74368931 0.09597369 624.25904846 0.12025452 C625.2776926 0.10883453 626.29633674 0.09741455 627.34584889 0.08564851 C631.87881707 0.14740033 635.0658514 0.25601591 638.67957586 3.16675347 C641.62799954 6.36032734 642.19139724 7.69452277 642.19425416 11.89341098 C642.19727013 12.7681421 642.2002861 13.64287322 642.20339346 14.54411134 C642.20162399 15.5128701 642.19985452 16.48162887 642.19803143 17.47974396 C642.20111038 19.02075532 642.20111038 19.02075532 642.20425153 20.59289822 C642.20995851 24.07565994 642.20845975 27.55838258 642.20704556 31.04114819 C642.20962707 33.54718992 642.21263963 36.05323124 642.21604896 38.55927199 C642.22329619 44.75024165 642.22582279 50.94119887 642.22637801 57.13217228 C642.22729013 64.54387375 642.23395314 71.9555672 642.24072484 79.36726524 C642.25680256 97.28313742 642.26269001 115.19900878 642.26747358 133.11488688 C642.26980764 141.58600963 642.27341006 150.0571317 642.27716896 158.52825391 C642.29000568 187.51134308 642.30072505 216.49443186 642.30417156 245.4775238 C642.3043932 247.29770521 642.30461498 249.11788661 642.30483691 250.93806801 C642.30505756 252.76270931 642.30527804 254.5873506 642.30549836 256.41199189 C642.30594092 260.07269434 642.30638803 263.73339679 642.30683804 267.39409924 C642.30694743 268.30174403 642.30705682 269.20938881 642.30716952 270.14453799 C642.31080142 299.58533448 642.32672586 329.02610635 642.3500284 358.46689341 C642.3746057 389.57496863 642.38834341 420.68302978 642.38953948 451.79111499 C642.38971094 455.2037714 642.38992637 458.6164278 642.39017391 462.02908421 C642.39022968 462.86940958 642.39028545 463.70973496 642.39034291 464.57552474 C642.39149516 478.11838797 642.40253186 491.66122602 642.41706097 505.20408074 C642.43140332 518.8077315 642.43467578 532.41134986 642.42662099 546.0150061 C642.42215409 554.10352338 642.4260675 562.19193634 642.4418595 570.28043999 C642.4527132 576.31036903 642.44800192 582.34017777 642.43708763 588.37011119 C642.435116 590.81696274 642.43827583 593.26382459 642.44693199 595.71066163 C642.45791334 599.02303908 642.45061587 602.33487805 642.43854046 605.64723969 C642.44613565 606.60897495 642.45373085 607.57071021 642.4615562 608.56158897 C642.42326249 613.38922543 642.37422306 616.93380002 639.06660366 620.75225353 C636.09840338 622.56229731 633.88720166 623.00255994 630.43339211 623.00410253 C629.49969655 623.00936579 628.56600099 623.01462905 627.60401163 623.02005181 C626.57954176 623.01565532 625.5550719 623.01125884 624.4995575 623.00672913 C622.8588473 623.01153884 622.8588473 623.01153884 621.18499145 623.01644573 C617.48813309 623.02480403 613.79143429 623.01880108 610.09457302 623.01294994 C607.4300581 623.01596797 604.76555491 623.0197744 602.10104364 623.02454251 C596.29153797 623.03332168 590.48206754 623.03461055 584.67255688 623.03103924 C576.03372136 623.02574259 567.39492009 623.03181703 558.7560883 623.04012217 C542.43144086 623.05538408 526.1068089 623.057065 509.78215582 623.05459914 C497.17883893 623.05276839 484.57552713 623.0545215 471.97221088 623.05882359 C470.16322322 623.05942598 468.35423556 623.06002718 466.54524789 623.06062719 C463.81947346 623.06153441 461.09369903 623.06244308 458.3679246 623.06335954 C433.01638828 623.07179238 407.66485387 623.07612246 382.31331635 623.07195282 C381.35707877 623.07179644 380.4008412 623.07164007 379.41562673 623.07147895 C374.56873901 623.07067314 369.7218513 623.06982737 364.87496359 623.06896565 C363.91230991 623.06879456 362.94965623 623.06862348 361.95783123 623.0684472 C360.01111075 623.06810055 358.06439027 623.06775202 356.11766979 623.06740162 C325.82011866 623.06204325 295.52259663 623.06997678 265.22505093 623.08843517 C231.20658144 623.10913608 197.18812998 623.11988157 163.16965383 623.11585969 C159.54470663 623.11546432 155.91975942 623.11510278 152.2948122 623.11476231 C151.40222011 623.11467157 150.50962801 623.11458084 149.58998768 623.11448736 C136.0965039 623.11331982 122.60303829 623.11998157 109.10955906 623.13057423 C93.76981708 623.14260375 78.43011519 623.14421118 63.09037263 623.13178406 C54.49972658 623.12513663 45.90917628 623.1268297 37.31853781 623.14037257 C31.58601135 623.1485836 25.85355703 623.14596339 20.1210365 623.13439731 C16.85098821 623.12810742 13.58116603 623.12826232 10.31112135 623.13826064 C6.79373334 623.14827355 3.27685772 623.14002444 -0.24050903 623.12698364 C-1.26263773 623.13429299 -2.28476643 623.14160233 -3.33786872 623.14913318 C-12.01829185 623.08187114 -12.01829185 623.08187114 -15.93339634 619.75225353 C-18.00357379 616.64698735 -18.18404102 615.99111002 -18.18984801 612.4752242 C-18.19613617 611.59563518 -18.20242433 610.71604615 -18.20890304 609.80980292 C-18.20564995 608.84074833 -18.20239685 607.87169373 -18.19904518 606.87327385 C-18.20345005 605.84170195 -18.20785491 604.81013005 -18.21239325 603.74729839 C-18.22480236 600.25612328 -18.22283362 596.76510043 -18.22100925 593.27390575 C-18.2268886 590.75946243 -18.23362658 588.24502099 -18.24115413 585.73058206 C-18.25738427 579.52267771 -18.26417759 573.31482049 -18.26700216 567.10689745 C-18.27087396 559.6740679 -18.28623405 552.24127331 -18.30176326 544.80846058 C-18.33869159 526.84248565 -18.35504332 508.87650915 -18.36864162 490.91050404 C-18.37518056 482.41489595 -18.38400526 473.91929067 -18.39302152 465.42368489 C-18.42374777 436.35391508 -18.44946474 407.28414575 -18.46034431 378.21436119 C-18.46104071 376.38897924 -18.46173838 374.56359729 -18.46243733 372.73821535 C-18.46278286 371.83297364 -18.46312839 370.92773193 -18.46348439 369.99505865 C-18.46523786 365.40850837 -18.46700919 360.8219581 -18.46879673 356.23540783 C-18.46914627 355.325187 -18.46949581 354.41496617 -18.46985594 353.47716289 C-18.4813841 323.95298692 -18.52074733 294.42893837 -18.57654304 264.9048151 C-18.63539837 233.70482975 -18.66886522 202.50491826 -18.67335647 171.30487615 C-18.67394549 167.88182594 -18.67464048 164.45877577 -18.67541409 161.03572559 C-18.67559305 160.19284784 -18.67577201 159.34997009 -18.67595639 158.48155058 C-18.67944316 144.90076493 -18.70615282 131.32011928 -18.74114299 117.73938247 C-18.77571539 104.09659173 -18.78450625 90.45397444 -18.76693238 76.81114956 C-18.75723981 68.7004432 -18.76709141 60.59030547 -18.80470555 52.47967758 C-18.83060883 46.43145935 -18.8201499 40.38388991 -18.79526316 34.33564309 C-18.79089826 31.88273975 -18.7984881 29.42978148 -18.81893618 26.97695949 C-18.84492246 23.65322892 -18.82815389 20.33240761 -18.80031776 17.00875664 C-18.81813516 16.04672554 -18.83595257 15.08469445 -18.85430989 14.0935109 C-18.77018707 9.49934702 -18.37281571 6.50394855 -15.06255102 3.15823793 C-10.34924478 -0.21144909 -5.61814772 -0.07923231 0 0 Z " fill="#0B2848" transform="translate(199.9333963394165,200.24774646759033)"/>
<path d="M0 0 C12.94770446 11.68656441 21.83427144 27.56571515 23.40625 45.171875 C23.40625 48.471875 23.40625 51.771875 23.40625 55.171875 C9.87625 55.171875 -3.65375 55.171875 -17.59375 55.171875 C-18.91375 49.891875 -20.23375 44.611875 -21.59375 39.171875 C-26.61475096 30.02249548 -32.46197539 24.12935528 -42.51171875 20.87109375 C-53.26905714 18.43058225 -62.89895345 20.04469401 -72.59375 25.171875 C-82.94604269 31.8694174 -88.46812521 43.78360925 -91.41601562 55.41674805 C-93.65004716 66.14363428 -94.02545011 76.52536678 -93.92993164 87.46362305 C-93.90619579 90.36600344 -93.90941525 93.26746782 -93.91601562 96.16992188 C-93.88813564 114.96373788 -92.93072872 135.82954156 -79.5234375 150.42578125 C-70.1505195 159.29249637 -60.38974427 161.76278216 -47.7890625 161.51953125 C-40.37736939 161.11675848 -34.44159558 157.91222508 -28.21875 154.109375 C-21.24639493 146.30697765 -19.46163851 138.44526181 -17.59375 128.171875 C-4.06375 128.171875 9.46625 128.171875 23.40625 128.171875 C23.40625 146.37345338 17.54628133 162.80822037 4.734375 175.96875 C-12.52021311 192.29691727 -34.38264506 198.84457352 -58.02734375 198.421875 C-81.16727206 196.79979897 -99.80036577 187.14121398 -115.34375 170.234375 C-130.34100228 152.28684358 -135.73375453 126.83278021 -135.76171875 103.92578125 C-135.76504715 102.95640121 -135.76837555 101.98702118 -135.77180481 100.98826599 C-135.77684664 98.94180776 -135.77921399 96.89534139 -135.77905273 94.84887695 C-135.78122151 91.77475767 -135.79935783 88.70100825 -135.81835938 85.62695312 C-135.90834402 54.64641257 -131.09057878 26.12860488 -108.59375 3.171875 C-107.92988281 2.47191406 -107.26601563 1.77195312 -106.58203125 1.05078125 C-79.08227637 -25.82040781 -28.30925709 -23.82994426 0 0 Z " fill="#F9F8F9" transform="translate(757.59375,404.828125)"/>
<path d="M0 0 C13.86 0 27.72 0 42 0 C42.556875 3.25488281 43.11375 6.50976562 43.6875 9.86328125 C47.65480787 32.99104212 51.69323185 56.10024341 56.03344727 79.16113281 C56.3582847 80.88736057 56.68307302 82.61359757 57.0078125 84.33984375 C57.1682756 85.19252838 57.32873871 86.04521301 57.49406433 86.92373657 C58.77225731 93.73698115 60.01264997 100.55672776 61.2421875 107.37890625 C61.42690109 108.40253265 61.61161469 109.42615906 61.80192566 110.48080444 C62.69680739 115.44289293 63.58811932 120.40558995 64.47485352 125.36914062 C64.79431646 127.14325026 65.11389044 128.91733991 65.43359375 130.69140625 C65.57799896 131.50686417 65.72240417 132.32232208 65.8711853 133.16249084 C66.55382407 137.19886136 66.55382407 137.19886136 68 141 C69.88834183 133.64434945 71.77165085 126.28742218 73.65185547 118.9296875 C74.28878383 116.43949896 74.92676342 113.94957901 75.56591797 111.45996094 C79.1057413 97.66858628 82.533553 83.86580454 85.69061279 69.98162842 C88.71724611 56.739325 92.05007417 43.57325855 95.36541748 30.40100098 C96.23241452 26.95398941 97.09655549 23.50626182 97.9609375 20.05859375 C99.6376647 13.37164598 101.31891084 6.68585843 103 0 C114.88 0 126.76 0 139 0 C139.87140625 3.61839844 140.7428125 7.23679687 141.640625 10.96484375 C142.68425853 15.295874 143.72832809 19.62679901 144.77261353 23.95767212 C145.09024197 25.27494794 145.40784867 26.59222901 145.72543335 27.90951538 C150.02811262 45.75545154 154.36054991 63.59366266 158.74319458 81.42016602 C165.77912081 110.05300103 165.77912081 110.05300103 168.8125 122.9375 C169.06128906 123.97390625 169.31007813 125.0103125 169.56640625 126.078125 C169.7778125 126.98949219 169.98921875 127.90085937 170.20703125 128.83984375 C170.3872583 129.60675537 170.56748535 130.37366699 170.75317383 131.16381836 C171 133 171 133 170 135 C157.99225588 134.70042457 143.01893845 133.86460102 134 125 C124.58561499 109.98552898 122.56284079 89.23171083 120 72 C117.89531037 75.66631415 116.97735226 79.56888587 115.98461914 83.63916016 C115.79407455 84.40396698 115.60352997 85.1687738 115.4072113 85.95675659 C114.77885847 88.483138 114.15709003 91.01109398 113.53515625 93.5390625 C113.09727747 95.30312845 112.65891048 97.06707328 112.22007751 98.8309021 C111.06482234 103.47852928 109.9148046 108.12743489 108.76629639 112.7767334 C106.93287658 120.1965902 105.09325297 127.61490346 103.25039482 135.03242111 C102.61060835 137.61184361 101.97408845 140.19205603 101.33790588 142.77236938 C100.24671737 147.18717957 99.13108026 151.59526 98 156 C97.73013779 157.06661362 97.46027557 158.13322723 97.18223572 159.23216248 C95.0891341 166.93375065 95.0891341 166.93375065 91.18359375 169.58203125 C90.42844482 170.11473633 89.6732959 170.64744141 88.89526367 171.19628906 C87.67867065 171.99631348 87.67867065 171.99631348 86.4375 172.8125 C85.59485596 173.39870117 84.75221191 173.98490234 83.8840332 174.58886719 C82.13197817 175.80754602 80.37300268 177.01633272 78.60742188 178.21533203 C74.57310446 180.97664854 70.63690949 183.86929455 66.6875 186.75 C64.49988113 188.32792317 62.30955036 189.90202864 60.11914062 191.47607422 C58.00971758 192.99301185 55.90317417 194.51388514 53.796875 196.03515625 C52.51056066 196.96113756 51.22410992 197.88692943 49.9375 198.8125 C49.34735107 199.23950195 48.75720215 199.66650391 48.14916992 200.10644531 C44.11434965 203 44.11434965 203 43 203 C42.87551483 202.41071716 42.75102966 201.82143433 42.62277222 201.21429443 C41.29229241 194.91652377 39.96123437 188.61887549 38.62988281 182.32128906 C38.13723014 179.99058941 37.64471097 177.65986153 37.15234375 175.32910156 C34.21882118 161.4429599 31.26826662 147.56064794 28.2906189 133.68389893 C26.44738862 125.09278729 24.61196325 116.50003744 22.78125 107.90625 C22.51160431 106.64049133 22.24195862 105.37473267 21.96414185 104.07061768 C20.86831608 98.92586321 19.77278679 93.78104564 18.67724609 88.63623047 C15.48780935 73.65933289 12.29179226 58.68388999 9.08139038 43.71147156 C7.23298534 35.09026371 5.38844621 26.46825718 3.55664062 17.84350586 C3.25858648 16.44106672 2.96005391 15.03872921 2.66113281 13.63647461 C2.2132236 11.53519824 1.76660527 9.43365145 1.3203125 7.33203125 C1.06523926 6.13296143 0.81016602 4.9338916 0.54736328 3.69848633 C0 1 0 1 0 0 Z " fill="#F8F8F9" transform="translate(382,391)"/>
<path d="M0 0 C13.53 0 27.06 0 41 0 C41.06793092 19.52473951 41.1231057 39.04938215 41.15543652 58.57421017 C41.17085263 67.64155775 41.19184061 76.70882625 41.22631836 85.77612305 C41.25638275 93.68657809 41.27561311 101.59697581 41.28226548 109.5074864 C41.28614913 113.68933279 41.29516416 117.87101531 41.31719017 122.05280876 C41.33782584 126.00331576 41.34378029 129.95359422 41.33932304 133.90415001 C41.34013633 135.34026082 41.3459386 136.77638074 41.35761642 138.21244431 C41.5025337 156.98281777 38.58813518 174.72082917 27 190 C26.48824219 190.68835938 25.97648437 191.37671875 25.44921875 192.0859375 C17.13312522 202.44632133 3.98284889 208.79331643 -9 211 C-30.73456264 212.72670103 -50.60016786 210.89043683 -68.1875 196.875 C-78.81669061 186.89924324 -83.65226754 174.08639477 -86 160 C-86 155.05 -86 150.1 -86 145 C-73.13 145 -60.26 145 -47 145 C-46.01 150.94 -45.02 156.88 -44 163 C-41.53132725 168.50161356 -39.19153735 171.98117041 -33.5703125 174.375 C-26.47861357 176.09942527 -18.07827412 176.3961149 -11.3125 173.375 C-5.93713956 170.06349812 -3.54802898 164.95395762 -2 159 C-0.75631756 151.43496776 -0.82603908 143.88013913 -0.79467773 136.23046875 C-0.78508528 134.74162025 -0.77507442 133.25277439 -0.76467896 131.76393127 C-0.73777184 127.74182303 -0.71668595 123.71970322 -0.69667697 119.69755554 C-0.67472929 115.48682579 -0.64738378 111.27613109 -0.62062073 107.06542969 C-0.57081211 99.1006643 -0.52582965 91.13587933 -0.48259836 83.17107582 C-0.43312454 74.09969754 -0.3782442 65.02835446 -0.32291877 55.95701027 C-0.20928046 37.30470481 -0.10311586 18.65236681 0 0 Z " fill="#F9F9F9" transform="translate(321,391)"/>
<path d="M0 0 C13.2 0 26.4 0 40 0 C37.75002435 13.49985392 37.75002435 13.49985392 36.29516602 20.09619141 C36.13677498 20.81832541 35.97838394 21.54045942 35.81519318 22.28447628 C35.29762197 24.64081109 34.77578407 26.99617814 34.25390625 29.3515625 C33.88257534 31.03842773 33.51152388 32.7253545 33.14073181 34.41233826 C32.1547463 38.89456482 31.16505363 43.37596415 30.17428589 47.85713577 C28.94615374 53.4134964 27.72106925 58.97052978 26.49543571 64.52744198 C26.29309885 65.44480412 26.09076199 66.36216627 25.8822937 67.30732727 C25.68048367 68.22232813 25.47867363 69.13732899 25.27074814 70.08005714 C24.66108159 72.84346201 24.05091669 75.60675651 23.44070435 78.37004089 C21.0783243 89.073074 18.74173686 99.78124261 16.43359375 110.49609375 C15.68553995 113.95449566 14.93694685 117.41278039 14.1882019 120.87103271 C13.73079921 122.9921918 13.27629236 125.11397748 12.82473755 127.23638916 C12.21344662 130.10846166 11.59231463 132.97822819 10.96875 135.84765625 C10.70903664 137.08992226 10.70903664 137.08992226 10.44407654 138.35728455 C10.02694238 140.25346745 9.52277092 142.13018153 9 144 C5.8568669 145.57156655 3.634536 144.11705576 0.375 143.0625 C-0.81351563 142.68222656 -2.00203125 142.30195312 -3.2265625 141.91015625 C-4.14179687 141.60980469 -5.05703125 141.30945313 -6 141 C-7.60702379 134.20980584 -9.18916468 127.41415037 -10.75463867 120.61425781 C-11.28937127 118.30467838 -11.82965767 115.99637715 -12.37573242 113.68945312 C-13.16249668 110.36133254 -13.92876136 107.02903193 -14.69140625 103.6953125 C-14.93717911 102.67511017 -15.18295197 101.65490784 -15.43617249 100.60379028 C-16.9032252 94.07600759 -17.10163283 88.5928495 -16 82 C-15.74186523 80.30774292 -15.74186523 80.30774292 -15.47851562 78.58129883 C-15.19524414 77.03478638 -15.19524414 77.03478638 -14.90625 75.45703125 C-14.57403442 73.6318396 -14.57403442 73.6318396 -14.23510742 71.76977539 C-13.99032908 70.45063579 -13.74528508 69.13154547 -13.5 67.8125 C-13.2424824 66.41335069 -12.9850804 65.0141801 -12.7277832 63.61499023 C-11.82836254 58.74147429 -10.91553666 53.87051117 -10 49 C-9.81532166 48.01733154 -9.63064331 47.03466309 -9.44036865 46.0222168 C-8.23265797 39.60301426 -7.01828375 33.18510528 -5.79736328 26.7684021 C-5.39080121 24.63120475 -4.98503938 22.49385501 -4.58007812 20.35635376 C-4.008346 17.34242918 -3.4325382 14.32931287 -2.85546875 11.31640625 C-2.68278976 10.40332703 -2.51011078 9.4902478 -2.3321991 8.54949951 C-2.17125259 7.71404602 -2.01030609 6.87859253 -1.84448242 6.01782227 C-1.70491623 5.2868483 -1.56535004 4.55587433 -1.42155457 3.80274963 C-1 2 -1 2 0 0 Z " fill="#F9F8F9" transform="translate(581,391)"/>
<path d="M0 0 C3.69343765 0.6710004 6.2559544 1.52432732 9.43359375 3.546875 C10.24763672 4.0625 11.06167969 4.578125 11.90039062 5.109375 C12.73763672 5.65078125 13.57488281 6.1921875 14.4375 6.75 C15.68756836 7.53890625 15.68756836 7.53890625 16.96289062 8.34375 C19.34003511 9.8621158 21.69415764 11.37494386 24 13 C25.53601364 13.98190308 25.53601364 13.98190308 27.10305786 14.98364258 C29.05662081 16.63880793 29.8912624 17.58633779 30.54713917 20.08143997 C30.7467251 22.71010377 30.75345031 25.2792505 30.69702148 27.91503906 C30.70074516 29.40602112 30.70074516 29.40602112 30.70454407 30.92712402 C30.70546125 34.2074028 30.66367873 37.48564595 30.62109375 40.765625 C30.61243948 43.04294035 30.60629361 45.32026649 30.60255432 47.59759521 C30.58532733 53.58823816 30.53119623 59.57802395 30.47027588 65.56835938 C30.42662078 70.47203882 30.40911869 75.37564773 30.39300442 80.2794838 C30.37344335 86.10824779 30.34285097 91.93693057 30.30859375 97.765625 C30.30216795 98.88481575 30.29574215 100.0040065 30.28912163 101.15711212 C30.26824284 104.30567312 30.23995061 107.4540655 30.20874023 110.60253906 C30.20290924 111.54486389 30.19707825 112.48718872 30.19107056 113.45806885 C30.11533175 119.88466825 30.11533175 119.88466825 29 121 C26.9394469 121.09993532 24.8754741 121.13080906 22.8125 121.1328125 C21.55695312 121.13410156 20.30140625 121.13539063 19.0078125 121.13671875 C18.35071289 121.13462402 17.69361328 121.1325293 17.01660156 121.13037109 C15.00838665 121.12502234 13.00039541 121.13031691 10.9921875 121.13671875 C9.73664062 121.13542969 8.48109375 121.13414062 7.1875 121.1328125 C6.02605469 121.13168457 4.86460937 121.13055664 3.66796875 121.12939453 C1 121 1 121 0 120 C-0.09588124 118.44379604 -0.12188033 116.88323546 -0.12025452 115.32408142 C-0.12162918 114.31300827 -0.12300385 113.30193512 -0.12442017 112.26022339 C-0.12082489 111.14173004 -0.11722961 110.02323669 -0.11352539 108.87084961 C-0.11367142 107.70027512 -0.11381744 106.52970062 -0.1139679 105.32365417 C-0.11338895 102.10479057 -0.10835991 98.88596996 -0.10139394 95.66711497 C-0.09515957 92.306526 -0.09455654 88.94593627 -0.09336853 85.58534241 C-0.09025546 79.21757658 -0.0820424 72.84982784 -0.07201904 66.48206955 C-0.06085715 59.23430271 -0.05534726 51.98653507 -0.05032361 44.73876178 C-0.03985977 29.82583165 -0.0222608 14.91291753 0 0 Z " fill="#58B3E6" transform="translate(544,567)"/>
<path d="M0 0 C0.3001338 3.00740128 0.51551886 5.98474623 0.6875 9 C0.77966797 9.83917969 0.87183594 10.67835938 0.96679688 11.54296875 C1.08623702 14.34438297 0.92247161 16.34508171 0 19 C-2.64805997 21.87114873 -5.75372164 23.80004694 -9.07949829 25.81945801 C-11.23928429 27.14708925 -13.35298826 28.53406706 -15.4675293 29.93261719 C-21.41115434 33.86044257 -27.38498523 37.74128017 -33.36889648 41.60742188 C-35.9413581 43.27124765 -38.5081381 44.94354323 -41.07421875 46.6171875 C-41.87091476 47.12861298 -42.66761078 47.64003845 -43.4884491 48.16696167 C-44.21373306 48.64150787 -44.93901703 49.11605408 -45.6862793 49.60498047 C-46.32816696 50.02053192 -46.97005463 50.43608337 -47.63139343 50.86422729 C-48.0830336 51.23903229 -48.53467377 51.61383728 -49 52 C-49 52.66 -49 53.32 -49 54 C-47.48684259 55.22560247 -47.48684259 55.22560247 -45.4765625 56.3984375 C-44.71085937 56.8723291 -43.94515625 57.3462207 -43.15625 57.83447266 C-42.3209375 58.34284668 -41.485625 58.8512207 -40.625 59.375 C-38.8867924 60.45114334 -37.14984545 61.52932514 -35.4140625 62.609375 C-34.07263184 63.4437207 -34.07263184 63.4437207 -32.70410156 64.29492188 C-28.41924923 66.99674643 -24.20668895 69.80351424 -20 72.625 C-19.24154785 73.13337402 -18.4830957 73.64174805 -17.70166016 74.16552734 C-16.36426468 75.06333152 -15.027421 75.96195887 -13.69140625 76.86181641 C-12.13049534 77.91218688 -10.56543159 78.95637894 -9 80 C-9.62678171 83.66172475 -10.64451846 86.8818995 -12.0625 90.3125 C-12.42472656 91.19550781 -12.78695312 92.07851563 -13.16015625 92.98828125 C-13.43730469 93.65214844 -13.71445312 94.31601562 -14 95 C-18.94120791 93.3496948 -22.92109271 90.53311876 -27.1875 87.625 C-28.79809039 86.53893392 -30.40877006 85.45300024 -32.01953125 84.3671875 C-32.84275879 83.80999023 -33.66598633 83.25279297 -34.51416016 82.67871094 C-38.45537121 80.01717418 -42.41580599 77.38467441 -46.375 74.75 C-47.86203362 73.75789412 -49.34901418 72.76570869 -50.8359375 71.7734375 C-53.46201707 70.02231606 -56.09178913 68.27707346 -58.7265625 66.5390625 C-59.80679687 65.82492187 -60.88703125 65.11078125 -62 64.375 C-62.928125 63.76398437 -63.85625 63.15296875 -64.8125 62.5234375 C-67.82165972 60.42777269 -68.87695403 59.67763175 -69.546875 55.98828125 C-69.61390625 54.77527344 -69.6809375 53.56226563 -69.75 52.3125 C-69.84796875 51.11238281 -69.9459375 49.91226563 -70.046875 48.67578125 C-68.39221316 42.86594248 -63.97993558 41.02245556 -59 38 C-57.56034565 37.03964753 -56.12518006 36.07252048 -54.6953125 35.09765625 C-53.1727469 34.08462583 -51.64925775 33.07298254 -50.125 32.0625 C-43.79076265 27.85808916 -37.46387968 23.64358414 -31.15380859 19.40299988 C-27.8668286 17.19467258 -24.57739519 14.99001444 -21.28778076 12.78561401 C-19.63717583 11.67825774 -17.9876387 10.56930815 -16.33917236 9.45877075 C-14.00626777 7.88755009 -11.66959029 6.32209708 -9.33203125 4.7578125 C-8.62149094 4.27723892 -7.91095062 3.79666534 -7.17887878 3.30152893 C-2.22774891 0 -2.22774891 0 0 0 Z " fill="#F9F9F9" transform="translate(479,576)"/>
<path d="M0 0 C5.445 1.485 5.445 1.485 11 3 C10.38030739 10.19051456 8.4781132 16.78987747 6.421875 23.69140625 C5.86544424 25.58866647 5.30902008 27.48592865 4.75287342 29.38327217 C4.16218414 31.39471729 3.568646 33.40530221 2.97433472 35.41567993 C0.90039487 42.43386104 -1.14866665 49.45933271 -3.19921875 56.484375 C-3.40524153 57.18954569 -3.61126431 57.89471638 -3.8235302 58.62125587 C-7.67890223 71.82171356 -11.41641253 85.05259858 -15.0625 98.3125 C-15.32279999 99.25869202 -15.58309998 100.20488403 -15.85128784 101.17974854 C-17.33848178 106.59104902 -18.81903274 112.00414082 -20.2956543 117.41833496 C-21.00271883 120.00996543 -21.71109956 122.60123259 -22.41992188 125.19238281 C-24.95483589 134.45936175 -27.483024 143.72813054 -30 153 C-33.5149608 154.01492872 -35.29007469 153.83453136 -38.75 152.5625 C-39.54921875 152.27503906 -40.3484375 151.98757813 -41.171875 151.69140625 C-41.77515625 151.46324219 -42.3784375 151.23507812 -43 151 C-42.36253432 145.74524805 -41.24244831 140.82589603 -39.79150391 135.74047852 C-39.56661663 134.93848211 -39.34172935 134.13648571 -39.11002731 133.31018639 C-38.36141896 130.64438754 -37.60649564 127.98042023 -36.8515625 125.31640625 C-36.31466147 123.40950423 -35.7781826 121.5024833 -35.24209595 119.59535217 C-34.09547405 115.51860329 -32.94634331 111.44257264 -31.79553223 107.36700439 C-29.99583556 100.99027397 -28.20735669 94.61043036 -26.42089844 88.22998047 C-23.67782163 78.43518488 -20.92612465 68.64285015 -18.16706467 58.85254478 C-16.59252006 53.26479346 -15.02071234 47.67629994 -13.45458984 42.08618164 C-11.9033899 36.54961553 -10.3458176 31.01488047 -8.78358841 25.4814167 C-8.19679683 23.39877913 -7.61229463 21.31549507 -7.03016281 19.23155022 C-6.22855556 16.36345124 -5.4187947 13.49777881 -4.60693359 10.63256836 C-4.37115601 9.78159073 -4.13537842 8.9306131 -3.89245605 8.05384827 C-2.22818735 2.22818735 -2.22818735 2.22818735 0 0 Z " fill="#F7F8F8" transform="translate(518,546)"/>
<path d="M0 0 C9.24 0 18.48 0 28 0 C28 22.11 28 44.22 28 67 C18.76 67 9.52 67 0 67 C0 44.89 0 22.78 0 0 Z " fill="#59B6E8" transform="translate(585,621)"/>
<path d="M0 0 C1.26070312 0.01546875 2.52140625 0.0309375 3.8203125 0.046875 C6.875 0.25 6.875 0.25 7.875 1.25 C7.97295311 2.62609882 8.00298088 4.00713882 8.00439453 5.38671875 C8.00754669 6.26432861 8.01069885 7.14193848 8.01394653 8.04614258 C8.0119223 9.00029053 8.00989807 9.95443848 8.0078125 10.9375 C8.00924759 12.39675903 8.00924759 12.39675903 8.01071167 13.88549805 C8.01139358 15.946778 8.00953853 18.00806008 8.00537109 20.06933594 C8.000023 23.23637688 8.00531572 26.403276 8.01171875 29.5703125 C8.01105797 31.56770865 8.00977681 33.56510471 8.0078125 35.5625 C8.00983673 36.51664795 8.01186096 37.4707959 8.01394653 38.45385742 C8.01079437 39.33146729 8.00764221 40.20907715 8.00439453 41.11328125 C8.00359894 41.88969971 8.00280334 42.66611816 8.00198364 43.46606445 C7.875 45.25 7.875 45.25 6.875 46.25 C4.94832493 46.33748207 3.01848139 46.35697334 1.08984375 46.34765625 C-0.66489258 46.34282227 -0.66489258 46.34282227 -2.45507812 46.33789062 C-4.30262695 46.32532227 -4.30262695 46.32532227 -6.1875 46.3125 C-8.04084961 46.30573242 -8.04084961 46.30573242 -9.93164062 46.29882812 C-12.99614117 46.28699608 -16.06054721 46.27051173 -19.125 46.25 C-18.57211283 37.79752801 -16.79901361 29.76341287 -14.79638672 21.5612793 C-14.24591295 19.29567881 -13.71436111 17.02614718 -13.18359375 14.75585938 C-12.83446556 13.30701837 -12.48424475 11.85844011 -12.1328125 10.41015625 C-11.97644318 9.73517593 -11.82007385 9.06019562 -11.65896606 8.36476135 C-9.78786672 0.86443181 -7.57022221 -0.15544604 0 0 Z " fill="#5AB6E8" transform="translate(526.125,641.75)"/>
<path d="M0 0 C1.94330966 2.91496449 2.55019924 4.64095635 3.25 8 C3.44078125 8.86625 3.6315625 9.7325 3.828125 10.625 C4 13 4 13 2 16 C1.67 14.35 1.34 12.7 1 11 C0.34 11 -0.32 11 -1 11 C-1 11.66 -1 12.32 -1 13 C-1.66 13 -2.32 13 -3 13 C-2.01 8.71 -1.02 4.42 0 0 Z " fill="#1B314D" transform="translate(501,460)"/>
<path d="M0 0 C1.13817003 4.5526801 0.33208488 7.40300712 -0.9375 11.75 C-1.13279297 12.44738281 -1.32808594 13.14476562 -1.52929688 13.86328125 C-2.0108246 15.57798973 -2.50425157 17.28934877 -3 19 C-3.33 19 -3.66 19 -4 19 C-4.33 15.37 -4.66 11.74 -5 8 C-4.67 8.66 -4.34 9.32 -4 10 C-3.34 10 -2.68 10 -2 10 C-1.34 6.7 -0.68 3.4 0 0 Z " fill="#08112C" transform="translate(453,516)"/>
<path d="M0 0 C0.33 0 0.66 0 1 0 C0.7624796 1.90016324 0.52357981 3.80016528 0.27734375 5.69921875 C0.09657903 7.19880217 -0.05837909 8.7017912 -0.18359375 10.20703125 C-0.55421896 14.28390858 -0.91151615 16.31615709 -4 19 C-3.46048934 12.31006781 -2.11293829 6.36539272 0 0 Z " fill="#0C1733" transform="translate(486,521)"/>
<path d="M0 0 C0.99 0.33 1.98 0.66 3 1 C2.67 3.31 2.34 5.62 2 8 C0.68 8 -0.64 8 -2 8 C-1.47731534 5.23723823 -0.89130413 2.6739124 0 0 Z " fill="#133050" transform="translate(449,518)"/>
<path d="M0 0 C2.02350324 3.03525486 2.32124018 4.19426202 2.625 7.6875 C2.69976562 8.49574219 2.77453125 9.30398438 2.8515625 10.13671875 C2.90054687 10.75160156 2.94953125 11.36648438 3 12 C2.525625 11.505 2.05125 11.01 1.5625 10.5 C0.24076302 8.88457803 0.24076302 8.88457803 -1 9 C-0.67 6.03 -0.34 3.06 0 0 Z " fill="#162039" transform="translate(501,460)"/>
<path d="M0 0 C0.66 0 1.32 0 2 0 C2.66 3.63 3.32 7.26 4 11 C2.68 10.67 1.36 10.34 0 10 C0 6.7 0 3.4 0 0 Z " fill="#EAEDEF" transform="translate(549,515)"/>
<path d="M0 0 C1.18414294 3.55242882 0.69535532 4.69830562 -0.4375 8.1875 C-0.72496094 9.08855469 -1.01242187 9.98960937 -1.30859375 10.91796875 C-1.53675781 11.60503906 -1.76492188 12.29210937 -2 13 C-2.84062397 9.90226756 -3.08935201 7.21667249 -3 4 C-2.34 4 -1.68 4 -1 4 C-0.67 2.68 -0.34 1.36 0 0 Z " fill="#06122F" transform="translate(508,573)"/>
<path d="M0 0 C0.66 0.33 1.32 0.66 2 1 C1.67 3.31 1.34 5.62 1 8 C0.34 7.67 -0.32 7.34 -1 7 C-0.67 4.69 -0.34 2.38 0 0 Z " fill="#0F213E" transform="translate(498,473)"/>
</svg>
